<?xml version="1.0" encoding="UTF-8"?>
<svg id="Capa_2" data-name="Capa 2" xmlns="http://www.w3.org/2000/svg" viewBox="0 0 272.28 390.62">
  <defs>
    <style>
      .cls-1 {
        fill: #d4859a;
      }

      .cls-2 {
        fill: #f2c14e;
      }

      .cls-3 {
        fill: #5dade2;
      }

      .cls-4 {
        fill: #fff;
      }

      .cls-5 {
        fill: #e85d75;
      }

      .cls-6 {
        fill: #2d936c;
      }

      .cls-7 {
        fill: #e8863a;
      }
    </style>
  </defs>
  <g id="Capa_1-2" data-name="Capa 1">
    <rect class="cls-4" x="71.16" y="71.4" width="123.9" height="119.63"/>
    <rect class="cls-4" x=".46" width="90.47" height="90.47"/>
    <rect class="cls-2" x="90.93" width="90.47" height="90.47"/>
    <path class="cls-6" d="M181.4,0v90.47h-90.47L181.4,0Z"/>
    <rect class="cls-3" x="181.4" width="90.47" height="90.47"/>
    <path class="cls-7" d="M181.4,0v90.47h90.47L181.4,0Z"/>
    <rect class="cls-1" x="181.4" y="90.47" width="90.47" height="90.47"/>
    <path class="cls-5" d="M181.4,90.47h90.47v90.47l-90.47-90.47Z"/>
    <rect class="cls-7" x=".46" y="90.47" width="90.47" height="90.47"/>
    <path class="cls-3" d="M.46,135.71c0-24.98,20.25-45.24,45.24-45.24s45.24,20.25,45.24,45.24-20.25,45.24-45.24,45.24S.46,160.69.46,135.71"/>
    <rect class="cls-1" x="1.36" width="90.47" height="90.47"/>
    <path class="cls-2" d="M1.36,90.47V0c49.97,0,90.47,40.51,90.47,90.47H1.36Z"/>
    <rect class="cls-2" x=".46" y="180.95" width="90.47" height="90.47"/>
    <path class="cls-3" d="M.46,180.95h90.47L.46,271.42v-90.47Z"/>
    <rect class="cls-5" x="90.93" y="180.95" width="90.47" height="90.47"/>
    <path class="cls-6" d="M90.93,180.95c24.98,0,45.24,20.25,45.24,45.24s-20.25,45.24-45.24,45.24v-90.47Z"/>
    <rect class="cls-7" x="181.4" y="180.95" width="90.47" height="90.47"/>
    <rect class="cls-3" x="181.4" y="217.14" width="90.47" height="54.28"/>
    <rect class="cls-3" x="226.64" y="180.95" width="45.24" height="45.24"/>
    <g>
      <path d="M23.55,339.83h-11.01l-1.95,5.05H.66l12.67-28.98h9.61l12.67,28.98h-10.1l-1.95-5.05ZM20.86,332.8l-2.82-7.29-2.82,7.29h5.63Z"/>
      <path d="M68.27,315.9l-12.25,28.98h-9.61l-12.25-28.98h10.52l6.91,16.93,7.08-16.93h9.61Z"/>
      <path d="M95.1,337.52v7.37h-24.1v-28.98h23.56v7.37h-13.95v3.39h12.25v7.04h-12.25v3.81h14.49Z"/>
      <path d="M140.73,344.89l-.08-13.21-6.29,10.6h-4.31l-6.29-10.14v12.75h-8.9v-28.98h8.03l9.44,15.44,9.19-15.44h8.03l.08,28.98h-8.9Z"/>
      <path d="M175.88,339.83h-11.01l-1.95,5.05h-9.94l12.67-28.98h9.61l12.67,28.98h-10.1l-1.95-5.05ZM173.19,332.8l-2.82-7.29-2.82,7.29h5.63Z"/>
      <path d="M203.71,337.6h-2.65v7.29h-9.77v-28.98h13.95c8.07,0,13.21,4.22,13.21,10.93,0,4.18-1.99,7.33-5.46,9.11l6.09,8.94h-10.43l-4.93-7.29ZM204.62,323.44h-3.56v6.79h3.56c2.69,0,3.97-1.28,3.97-3.39s-1.28-3.39-3.97-3.39Z"/>
      <path d="M223.91,315.9h9.77v28.98h-9.77v-28.98Z"/>
      <path d="M259.93,339.83h-11.01l-1.95,5.05h-9.94l12.67-28.98h9.61l12.67,28.98h-10.1l-1.95-5.05ZM257.24,332.8l-2.82-7.29-2.82,7.29h5.63Z"/>
    </g>
    <g>
      <path d="M2.11,363.33v12.38h15.44v1.9H2.11v12.79H0v-28.98h19.38v1.9H2.11Z"/>
      <path d="M32.71,378.11v-16.69h2.11v16.6c0,7.25,3.48,10.64,9.52,10.64s9.48-3.39,9.48-10.64v-16.6h2.11v16.69c0,8.28-4.43,12.5-11.63,12.5s-11.59-4.22-11.59-12.5Z"/>
      <path d="M96.22,361.43v28.98h-1.74l-19.75-25.17v25.17h-2.11v-28.98h1.78l19.71,25.17v-25.17h2.11Z"/>
      <path d="M113.16,361.43h11.47c9.19,0,15.4,6.04,15.4,14.49s-6.21,14.49-15.4,14.49h-11.47v-28.98ZM124.46,388.51c8.2,0,13.46-5.22,13.46-12.59s-5.26-12.59-13.46-12.59h-9.19v25.17h9.19Z"/>
      <path d="M171.71,382.25h-16.81l-3.68,8.16h-2.28l13.33-28.98h2.11l13.33,28.98h-2.28l-3.73-8.16ZM170.92,380.47l-7.62-16.73-7.58,16.73h15.19Z"/>
      <path d="M186.61,375.92c0-8.45,6.42-14.7,15.03-14.7,4.1,0,7.78,1.32,10.31,4.02l-1.32,1.37c-2.48-2.44-5.51-3.44-8.9-3.44-7.41,0-13,5.47-13,12.75s5.59,12.75,13,12.75c3.39,0,6.42-1.04,8.9-3.48l1.32,1.37c-2.53,2.69-6.21,4.06-10.31,4.06-8.61,0-15.03-6.25-15.03-14.7Z"/>
      <path d="M225.87,361.43h2.11v28.98h-2.11v-28.98Z"/>
      <path d="M242.14,375.92c0-8.4,6.42-14.7,15.07-14.7s15.07,6.25,15.07,14.7-6.46,14.7-15.07,14.7-15.07-6.29-15.07-14.7ZM270.13,375.92c0-7.33-5.55-12.75-12.92-12.75s-12.96,5.42-12.96,12.75,5.55,12.75,12.96,12.75,12.92-5.42,12.92-12.75ZM260.6,354.18h2.98l-6.5,4.89h-2.24l5.75-4.89Z"/>
    </g>
  </g>
</svg>