<?xml version="1.0" encoding="UTF-8"?>
<svg id="Capa_1" xmlns="http://www.w3.org/2000/svg" version="1.1" viewBox="0 0 491.98 222.86">
  <!-- Generator: Adobe Illustrator 30.3.0, SVG Export Plug-In . SVG Version: 2.1.3 Build 182)  -->
  <defs>
    <style>
      .st0 {
        fill: #010101;
      }
    </style>
  </defs>
  <g>
    <path class="st0" d="M60.28,48.8h-17.98l-3.18,8.25h-16.23L43.58,9.72h15.68l20.69,47.32h-16.5l-3.18-8.25ZM55.89,37.3l-4.6-11.9-4.6,11.9h9.19Z"/>
    <path class="st0" d="M133.3,9.72l-20.01,47.32h-15.68l-20.01-47.32h17.17l11.29,27.65,11.56-27.65h15.68Z"/>
    <path class="st0" d="M177.11,45.01v12.03h-39.35V9.72h38.47v12.03h-22.78v5.54h20.01v11.49h-20.01v6.22h23.66Z"/>
  </g>
  <g>
    <path class="st0" d="M27.68,157.74v20.21h25.22v3.11h-25.22v20.89h-3.45v-47.32h31.64v3.11h-28.19Z"/>
    <path class="st0" d="M77.64,181.88v-27.24h3.45v27.11c0,11.83,5.68,17.37,15.55,17.37s15.48-5.54,15.48-17.37v-27.11h3.45v27.24c0,13.52-7.23,20.42-19,20.42s-18.93-6.9-18.93-20.42Z"/>
    <path class="st0" d="M181.35,154.63v47.32h-2.84l-32.25-41.1v41.1h-3.45v-47.32h2.91l32.18,41.1v-41.1h3.45Z"/>
    <path class="st0" d="M209.01,154.63h18.73c15.01,0,25.15,9.87,25.15,23.66s-10.14,23.66-25.15,23.66h-18.73v-47.32ZM227.46,198.84c13.39,0,21.97-8.52,21.97-20.55s-8.59-20.55-21.97-20.55h-15.01v41.1h15.01Z"/>
    <path class="st0" d="M304.61,188.64h-27.45l-6.02,13.32h-3.72l21.77-47.32h3.45l21.77,47.32h-3.72l-6.08-13.32ZM303.32,185.73l-12.44-27.31-12.37,27.31h24.81Z"/>
    <path class="st0" d="M328.95,178.29c0-13.79,10.48-24,24.54-24,6.69,0,12.71,2.16,16.83,6.56l-2.16,2.23c-4.06-3.99-8.99-5.61-14.54-5.61-12.1,0-21.23,8.92-21.23,20.82s9.13,20.82,21.23,20.82c5.54,0,10.48-1.69,14.54-5.68l2.16,2.23c-4.12,4.39-10.14,6.63-16.83,6.63-14.06,0-24.54-10.21-24.54-24Z"/>
    <path class="st0" d="M393.04,154.63h3.45v47.32h-3.45v-47.32Z"/>
    <path class="st0" d="M419.61,178.29c0-13.72,10.48-24,24.61-24s24.61,10.21,24.61,24-10.55,24-24.61,24-24.61-10.28-24.61-24ZM465.31,178.29c0-11.97-9.06-20.82-21.09-20.82s-21.16,8.86-21.16,20.82,9.06,20.82,21.16,20.82,21.09-8.86,21.09-20.82ZM449.77,142.8h4.87l-10.61,7.98h-3.65l9.4-7.98Z"/>
  </g>
  <g>
    <path class="st0" d="M65.15,126.63l-.14-21.57-10.28,17.31h-7.03l-10.28-16.56v20.82h-14.54v-47.32h13.12l15.41,25.22,15.01-25.22h13.12l.14,47.32h-14.54Z"/>
    <path class="st0" d="M122.55,118.38h-17.98l-3.18,8.25h-16.23l20.69-47.32h15.68l20.69,47.32h-16.5l-3.18-8.25ZM118.15,106.89l-4.6-11.9-4.6,11.9h9.19Z"/>
    <path class="st0" d="M167.98,114.73h-4.33v11.9h-15.95v-47.32h22.78c13.18,0,21.57,6.9,21.57,17.85,0,6.83-3.25,11.97-8.92,14.87l9.94,14.6h-17.04l-8.04-11.9ZM169.47,91.61h-5.81v11.09h5.81c4.39,0,6.49-2.1,6.49-5.54s-2.1-5.54-6.49-5.54Z"/>
    <path class="st0" d="M200.98,79.3h15.95v47.32h-15.95v-47.32Z"/>
    <path class="st0" d="M259.8,118.38h-17.98l-3.18,8.25h-16.23l20.69-47.32h15.68l20.69,47.32h-16.5l-3.18-8.25ZM255.4,106.89l-4.6-11.9-4.6,11.9h9.19Z"/>
  </g>
</svg>