<?xml version="1.0" encoding="UTF-8"?>
<svg id="Capa_2" data-name="Capa 2" xmlns="http://www.w3.org/2000/svg" viewBox="0 0 120.88 67.18">
  <defs>
    <style>
      .cls-1 {
        fill: #1d1d1b;
      }

      .cls-2 {
        fill: #cac9c9;
      }
    </style>
  </defs>
  <g id="Capa_1-2" data-name="Capa 1">
    <g>
      <path class="cls-2" d="M19.84,25.95c2.93,2.19,6.65,2.79,10.36,1.99-.29-3.78-1.91-7.18-4.84-9.37s-6.65-2.79-10.36-1.99c.29,3.78,1.91,7.18,4.84,9.37Z"/>
      <path d="M75.03,45.22c0-4.94,4.01-8.95,8.95-8.95s8.95,4.01,8.95,8.95h-17.9Z"/>
      <rect class="cls-2" x="22.51" y="51.73" width="14.25" height="6.92" transform="translate(-25.56 84.82) rotate(-90)"/>
      <rect class="cls-2" x="22.51" y="28.46" width="14.25" height="6.92" transform="translate(-2.29 61.55) rotate(-90)"/>
      <rect x="37.3" y="28.46" width="14.25" height="6.92" transform="translate(12.51 76.35) rotate(-90)"/>
      <rect class="cls-2" x="51.44" y="28.46" width="14.25" height="6.92" transform="translate(26.65 90.48) rotate(-90)"/>
      <rect class="cls-2" x="56.95" y="17.01" width="3" height="1.46" transform="translate(40.7 76.19) rotate(-90)"/>
      <rect class="cls-2" x="74.35" y="25.49" width="7.66" height="3.72" transform="translate(50.83 105.53) rotate(-90)"/>
      <rect class="cls-2" x="42.71" y="17.01" width="3" height="1.46" transform="translate(26.47 61.95) rotate(-90)"/>
      <rect class="cls-2" x="36.75" y="51.73" width="14.25" height="6.92" transform="translate(-11.31 99.06) rotate(-90)"/>
      <rect class="cls-2" x="51.12" y="51.73" width="14.25" height="6.92" transform="translate(3.06 113.43) rotate(-90)"/>
      <rect class="cls-2" x="73.05" y="51.73" width="14.25" height="6.92" transform="translate(24.99 135.36) rotate(-90)"/>
      <rect class="cls-2" x="80.15" y="51.73" width="14.25" height="6.92" transform="translate(32.09 142.46) rotate(-90)"/>
      <circle class="cls-2" cx="78.18" cy="20.19" r="1.86"/>
      <path d="M80.04,23.93v-3.72h0c0,1.03-.83,1.86-1.86,1.86s-1.86-.83-1.86-1.86h0v3.72h3.72Z"/>
      <rect class="cls-2" x="86.17" y="25.49" width="7.66" height="3.72" transform="translate(62.65 117.35) rotate(-90)"/>
      <circle class="cls-2" cx="90" cy="20.19" r="1.86"/>
      <path class="cls-2" d="M91.86,23.93v-3.72h0c0,1.03-.83,1.86-1.86,1.86s-1.86-.83-1.86-1.86h0v3.72h3.72Z"/>
      <circle cx="84.04" cy="14.97" r="1.48"/>
      <path class="cls-2" d="M85.49,17.89v-2.92h0c0,.8-.65,1.46-1.46,1.46s-1.46-.65-1.46-1.46h0v2.92h2.92Z"/>
      <rect class="cls-2" x="81.52" y="17.47" width="4.97" height="4.97" transform="translate(168.02 39.92) rotate(180)"/>
      <rect class="cls-2" x="81.52" y="22.44" width="4.97" height="4.97" transform="translate(168.02 49.84) rotate(180)"/>
      <rect class="cls-2" x="81.52" y="27.4" width="4.97" height="4.97" transform="translate(168.02 59.77) rotate(180)"/>
      <path class="cls-2" d="M13.12,26.85c2.19-2.93,2.79-6.65,1.99-10.36-3.78.29-7.18,1.91-9.37,4.84s-2.79,6.65-1.99,10.36c3.78-.29,7.18-1.91,9.37-4.84Z"/>
      <path class="cls-2" d="M24.46,11.85c2.19-2.93,2.79-6.65,1.99-10.36-3.78.29-7.18,1.91-9.37,4.84-2.19,2.93-2.79,6.65-1.99,10.36,3.78-.29,7.18-1.91,9.37-4.84Z"/>
      <path class="cls-2" d="M13.12,26.85c2.19-2.93,2.79-6.65,1.99-10.36-3.78.29-7.18,1.91-9.37,4.84s-2.79,6.65-1.99,10.36c3.78-.29,7.18-1.91,9.37-4.84Z"/>
      <path class="cls-2" d="M24.46,11.85c2.19-2.93,2.79-6.65,1.99-10.36-3.78.29-7.18,1.91-9.37,4.84-2.19,2.93-2.79,6.65-1.99,10.36,3.78-.29,7.18-1.91,9.37-4.84Z"/>
      <path class="cls-2" d="M95.52,14.61c2.93,2.19,6.65,2.79,10.36,1.99-.29-3.78-1.91-7.18-4.84-9.37s-6.65-2.79-10.36-1.99c.29,3.78,1.91,7.18,4.84,9.37Z"/>
      <path class="cls-2" d="M110.52,25.95c2.93,2.19,6.65,2.79,10.36,1.99-.29-3.78-1.91-7.18-4.84-9.37-2.93-2.19-6.65-2.79-10.36-1.99.29,3.78,1.91,7.18,4.84,9.37Z"/>
      <path class="cls-2" d="M103.8,26.85c2.19-2.93,2.79-6.65,1.99-10.36-3.78.29-7.18,1.91-9.37,4.84-2.19,2.93-2.79,6.65-1.99,10.36,3.78-.29,7.18-1.91,9.37-4.84Z"/>
      <path class="cls-2" d="M115.14,11.85c2.19-2.93,2.79-6.65,1.99-10.36-3.78.29-7.18,1.91-9.37,4.84s-2.79,6.65-1.99,10.36c3.78-.29,7.18-1.91,9.37-4.84Z"/>
      <rect class="cls-1" x="82.1" y="7.03" width="4.13" height="2.42"/>
      <rect class="cls-1" x="82.1" y="6.16" width="4.13" height="2.42" transform="translate(76.8 91.54) rotate(-90)"/>
      <rect class="cls-2" x="8.8" y="62.11" width="104.91" height="5.06"/>
      <rect class="cls-2" x="-7.75" y="39" width="47.06" height="2.8" transform="translate(-24.62 56.18) rotate(-90)"/>
      <rect class="cls-2" x="82.92" y="39" width="47.06" height="2.8" transform="translate(66.05 146.85) rotate(-90)"/>
      <rect class="cls-2" x="13.38" y="14.55" width="28.54" height="2.8" transform="translate(55.3 31.91) rotate(180)"/>
      <rect class="cls-2" x="64.78" y="7.56" width="22.2" height="2.8" transform="translate(135.87 -38.36) rotate(135)"/>
      <rect class="cls-2" x="81.03" y="7.56" width="22.2" height="2.8" transform="translate(33.32 -62.52) rotate(45)"/>
      <rect class="cls-2" x="46.44" y="14.55" width="10.17" height="2.8" transform="translate(103.04 31.91) rotate(180)"/>
      <rect class="cls-2" x="60.54" y="14.55" width="10.17" height="2.8" transform="translate(131.25 31.91) rotate(180)"/>
      <rect class="cls-2" x="39.29" y="11.79" width="10.17" height="2.8" transform="translate(88.75 26.37) rotate(180)"/>
      <rect class="cls-2" x="79.06" width="10.17" height="2.8" transform="translate(168.29 2.8) rotate(180)"/>
      <rect class="cls-2" x="53.07" y="11.85" width="10.17" height="2.8" transform="translate(116.31 26.5) rotate(180)"/>
      <path d="M4.84,14.61c2.93,2.19,6.65,2.79,10.36,1.99-.29-3.78-1.91-7.18-4.84-9.37S3.71,4.44,0,5.24c.29,3.78,1.91,7.18,4.84,9.37Z"/>
    </g>
  </g>
</svg>