<?xml version="1.0" encoding="UTF-8"?>
<svg id="Capa_2" data-name="Capa 2" xmlns="http://www.w3.org/2000/svg" viewBox="0 0 454.28 454.19">
  <defs>
    <style>
      .cls-1 {
        stroke-dasharray: 9.44 9.44;
      }

      .cls-1, .cls-2, .cls-3, .cls-4, .cls-5 {
        fill: none;
        stroke: #c40038;
        stroke-miterlimit: 10;
      }

      .cls-1, .cls-4, .cls-5 {
        stroke-width: .78px;
      }

      .cls-6 {
        fill: #e0e0e0;
      }

      .cls-2 {
        stroke-dasharray: 10.51;
        stroke-width: .88px;
      }

      .cls-7 {
        fill: #d4859a;
      }

      .cls-3 {
        stroke-dasharray: 9.36;
        stroke-width: .78px;
      }

      .cls-8 {
        fill: #f2c14e;
      }

      .cls-9 {
        fill: #5dade2;
      }

      .cls-10 {
        fill: #fff;
      }

      .cls-5 {
        stroke-dasharray: 9.43 9.43;
      }

      .cls-11 {
        fill: #e85d75;
      }

      .cls-12 {
        fill: #2d936c;
      }

      .cls-13 {
        fill: #e8863a;
      }
    </style>
  </defs>
  <g id="Capa_1-2" data-name="Capa 1">
    <g>
      <rect class="cls-10" x="161.55" y="161.42" width="123.73" height="119.46"/>
      <rect class="cls-10" x="90.94" y="90.12" width="90.34" height="90.34"/>
      <rect class="cls-8" x="181.29" y="90.12" width="90.34" height="90.34"/>
      <path class="cls-12" d="M271.63,90.12v90.34h-90.34l90.34-90.34Z"/>
      <rect class="cls-9" x="271.63" y="90.12" width="90.34" height="90.34"/>
      <path class="cls-13" d="M271.63,90.12v90.34h90.34l-90.34-90.34Z"/>
      <rect class="cls-7" x="271.63" y="180.47" width="90.34" height="90.34"/>
      <path class="cls-11" d="M271.63,180.47h90.34v90.34l-90.34-90.34Z"/>
      <rect class="cls-13" x="90.94" y="180.47" width="90.34" height="90.34"/>
      <path class="cls-9" d="M90.94,225.64c0-24.95,20.22-45.17,45.17-45.17s45.17,20.22,45.17,45.17-20.22,45.17-45.17,45.17-45.17-20.22-45.17-45.17"/>
      <rect class="cls-7" x="91.84" y="90.12" width="90.34" height="90.34"/>
      <path class="cls-8" d="M91.84,180.47v-90.34c49.9,0,90.34,40.45,90.34,90.34h-90.34Z"/>
      <rect class="cls-8" x="90.94" y="270.81" width="90.34" height="90.34"/>
      <path class="cls-9" d="M90.94,270.81h90.34l-90.34,90.34v-90.34Z"/>
      <rect class="cls-11" x="181.29" y="270.81" width="90.34" height="90.34"/>
      <path class="cls-12" d="M181.29,270.81c24.95,0,45.17,20.22,45.17,45.17s-20.22,45.17-45.17,45.17v-90.34Z"/>
      <rect class="cls-13" x="271.63" y="270.81" width="90.34" height="90.34"/>
      <rect class="cls-9" x="271.63" y="306.95" width="90.34" height="54.21"/>
      <rect class="cls-9" x="271.55" y="270.81" width="45.17" height="45.17"/>
    </g>
    <rect class="cls-6" x=".86" y="2.17" width="90.47" height="90.47" transform="translate(-1.31 93.5) rotate(-90)"/>
    <rect class="cls-6" x="361.19" y="364.69" width="90.47" height="87.05" transform="translate(-1.78 814.64) rotate(-90)"/>
    <g>
      <polyline class="cls-4" points="449.21 1.07 453.89 1.07 453.89 5.75"/>
      <line class="cls-5" x1="453.89" y1="15.18" x2="453.89" y2="444.41"/>
      <polyline class="cls-4" points="453.89 449.13 453.89 453.8 449.21 453.8"/>
      <line class="cls-1" x1="439.77" y1="453.8" x2="10.25" y2="453.8"/>
      <polyline class="cls-4" points="5.53 453.8 .86 453.8 .86 449.13"/>
      <line class="cls-5" x1=".86" y1="439.69" x2=".86" y2="10.47"/>
      <polyline class="cls-4" points=".86 5.75 .86 1.07 5.53 1.07"/>
      <line class="cls-1" x1="14.97" y1="1.07" x2="444.49" y2="1.07"/>
    </g>
    <line class="cls-2" x1="362.56" x2="362.56" y2="454.03"/>
    <line class="cls-2" x1="272.6" x2="272.6" y2="454.03"/>
    <line class="cls-2" x1="181.43" x2="181.43" y2="454.03"/>
    <line class="cls-2" x1="91.46" x2="91.46" y2="454.03"/>
    <line class="cls-3" x1="0" y1="91.46" x2="453.81" y2="91.46"/>
    <line class="cls-3" x1="0" y1="181.43" x2="453.81" y2="181.43"/>
    <line class="cls-3" x1="0" y1="272.6" x2="453.81" y2="272.6"/>
    <line class="cls-3" x1="0" y1="362.56" x2="453.81" y2="362.56"/>
  </g>
</svg>