<?xml version="1.0" encoding="UTF-8"?>
<svg id="Capa_2" xmlns="http://www.w3.org/2000/svg" version="1.1" viewBox="0 0 272.3 390.6">
  <!-- Generator: Adobe Illustrator 30.3.0, SVG Export Plug-In . SVG Version: 2.1.3 Build 182)  -->
  <defs>
    <style>
      .st0 {
        fill: #d4859a;
      }

      .st1 {
        fill: #f2c14e;
      }

      .st2 {
        fill: #5dade2;
      }

      .st3 {
        fill: #fff;
      }

      .st4 {
        fill: #f7f7f7;
      }

      .st5 {
        fill: #e85d75;
      }

      .st6 {
        fill: #2d936c;
      }

      .st7 {
        fill: #e8863a;
      }
    </style>
  </defs>
  <g id="Capa_1-2">
    <rect class="st3" x=".5" y="0" width="90.5" height="90.5"/>
    <rect class="st1" x="90.9" y="0" width="90.5" height="90.5"/>
    <path class="st6" d="M181.4,0v90.5h-90.5L181.4,0Z"/>
    <rect class="st2" x="181.4" y="0" width="90.5" height="90.5"/>
    <path class="st7" d="M181.4,0v90.5h90.5L181.4,0Z"/>
    <rect class="st0" x="181.4" y="90.5" width="90.5" height="90.5"/>
    <path class="st5" d="M181.4,90.5h90.5v90.5l-90.5-90.5Z"/>
    <rect class="st7" x=".5" y="90.5" width="90.5" height="90.5"/>
    <path class="st2" d="M.5,135.7c0-25,20.2-45.2,45.2-45.2s45.2,20.2,45.2,45.2-20.2,45.2-45.2,45.2S.5,160.7.5,135.7"/>
    <rect class="st0" x="1.4" y="0" width="90.5" height="90.5"/>
    <path class="st1" d="M1.4,90.5V0C51.3,0,91.8,40.5,91.8,90.5H1.4Z"/>
    <rect class="st1" x=".5" y="180.9" width="90.5" height="90.5"/>
    <path class="st2" d="M.5,180.9h90.5L.5,271.4v-90.5H.5Z"/>
    <rect class="st5" x="90.9" y="180.9" width="90.5" height="90.5"/>
    <path class="st6" d="M90.9,180.9c25,0,45.2,20.2,45.2,45.2s-20.2,45.2-45.2,45.2v-90.5h0Z"/>
    <rect class="st7" x="181.4" y="180.9" width="90.5" height="90.5"/>
    <rect class="st2" x="181.4" y="217.1" width="90.5" height="54.3"/>
    <rect class="st2" x="226.6" y="180.9" width="45.2" height="45.2"/>
    <g>
      <path class="st4" d="M23.5,339.8h-11l-1.9,5H.7l12.7-29h9.6l12.7,29h-10.1l-2-5h0ZM20.9,332.8l-2.8-7.3-2.8,7.3h5.6Z"/>
      <path class="st4" d="M68.3,315.9l-12.2,29h-9.6l-12.2-29h10.5l6.9,16.9,7.1-16.9h9.6,0Z"/>
      <path class="st4" d="M95.1,337.5v7.4h-24.1v-29h23.6v7.4h-13.9v3.4h12.2v7h-12.2v3.8h14.5Z"/>
      <path class="st4" d="M140.7,344.9v-13.2c0,0-6.4,10.6-6.4,10.6h-4.3l-6.3-10.1v12.8h-8.9v-29h8l9.4,15.4,9.2-15.4h8v29c0,0-8.8,0-8.8,0h0Z"/>
      <path class="st4" d="M175.9,339.8h-11l-1.9,5h-9.9l12.7-29h9.6l12.7,29h-10.1l-1.9-5ZM173.2,332.8l-2.8-7.3-2.8,7.3h5.6Z"/>
      <path class="st4" d="M203.7,337.6h-2.6v7.3h-9.8v-29h13.9c8.1,0,13.2,4.2,13.2,10.9s-2,7.3-5.5,9.1l6.1,8.9h-10.4l-4.9-7.3h0ZM204.6,323.4h-3.6v6.8h3.6c2.7,0,4-1.3,4-3.4s-1.3-3.4-4-3.4h0Z"/>
      <path class="st4" d="M223.9,315.9h9.8v29h-9.8v-29Z"/>
      <path class="st4" d="M259.9,339.8h-11l-1.9,5h-9.9l12.7-29h9.6l12.7,29h-10.1l-2-5ZM257.2,332.8l-2.8-7.3-2.8,7.3h5.6Z"/>
    </g>
    <g>
      <path class="st4" d="M2.1,363.3v12.4h15.4v1.9H2.1v12.8H0v-29h19.4v1.9H2.1Z"/>
      <path class="st4" d="M32.7,378.1v-16.7h2.1v16.6c0,7.2,3.5,10.6,9.5,10.6s9.5-3.4,9.5-10.6v-16.6h2.1v16.7c0,8.3-4.4,12.5-11.6,12.5s-11.6-4.2-11.6-12.5Z"/>
      <path class="st4" d="M96.2,361.4v29h-1.7l-19.8-25.2v25.2h-2.1v-29h1.8l19.7,25.2v-25.2h2.1Z"/>
      <path class="st4" d="M113.2,361.4h11.5c9.2,0,15.4,6,15.4,14.5s-6.2,14.5-15.4,14.5h-11.5v-29h0ZM124.5,388.5c8.2,0,13.5-5.2,13.5-12.6s-5.3-12.6-13.5-12.6h-9.2v25.2h9.2Z"/>
      <path class="st4" d="M171.7,382.3h-16.8l-3.7,8.2h-2.3l13.3-29h2.1l13.3,29h-2.3l-3.7-8.2h0ZM170.9,380.5l-7.6-16.7-7.6,16.7h15.2Z"/>
      <path class="st4" d="M186.6,375.9c0-8.5,6.4-14.7,15-14.7s7.8,1.3,10.3,4l-1.3,1.4c-2.5-2.4-5.5-3.4-8.9-3.4-7.4,0-13,5.5-13,12.8s5.6,12.8,13,12.8,6.4-1,8.9-3.5l1.3,1.4c-2.5,2.7-6.2,4.1-10.3,4.1-8.6,0-15-6.2-15-14.7h0Z"/>
      <path class="st4" d="M225.9,361.4h2.1v29h-2.1v-29Z"/>
      <path class="st4" d="M242.1,375.9c0-8.4,6.4-14.7,15.1-14.7s15.1,6.2,15.1,14.7-6.5,14.7-15.1,14.7-15.1-6.3-15.1-14.7h0ZM270.1,375.9c0-7.3-5.5-12.8-12.9-12.8s-13,5.4-13,12.8,5.6,12.8,13,12.8,12.9-5.4,12.9-12.8ZM260.6,354.2h3l-6.5,4.9h-2.2l5.8-4.9h0Z"/>
    </g>
  </g>
</svg>