<?xml version="1.0" encoding="UTF-8"?>
<svg id="Capa_2" data-name="Capa 2" xmlns="http://www.w3.org/2000/svg" viewBox="0 0 122.99 66.59">
  <defs>
    <style>
      .cls-1 {
        fill: #006838;
      }
    </style>
  </defs>
  <g id="Capa_1-2" data-name="Capa 1">
    <polygon class="cls-1" points="79.79 0 79.79 3.22 68.53 14.22 61.93 14.22 61.93 12.17 55.37 12.17 55.37 14.22 47.85 14.22 47.85 12.17 41.34 12.17 41.34 14.2 28.71 14.22 28.66 17.43 42.72 17.43 42.75 14.22 46.68 14.22 46.68 17.43 56.68 17.43 56.68 14.22 60.61 14.22 60.61 17.43 69.75 17.41 81.73 5.59 81.73 3.22 86.16 3.22 86.16 5.6 95.83 17.03 99.72 17 99.71 14.09 97.29 14.1 88.19 3.12 88.19 0 79.79 0"/>
    <rect class="cls-1" x="55.57" y="24.79" width="6.23" height="17.04"/>
    <rect class="cls-1" x="27.54" y="24.79" width="6.23" height="17.04"/>
    <path class="cls-1" d="M91.59,20.99c0-1.12-.83-2.03-1.85-2.03s-1.85.91-1.85,2.03v9.42h3.71v-9.42Z"/>
    <path class="cls-1" d="M86.49,17.43h-.97v-1.97c0-.89-.67-1.62-1.48-1.62s-1.48.73-1.48,1.62v1.97h-.91v16.94h4.84v-16.94Z"/>
    <path class="cls-1" d="M80.25,20.99c0-1.12-.83-2.03-1.85-2.03s-1.85.91-1.85,2.03v9.42h3.71v-9.42Z"/>
    <path class="cls-1" d="M76.38,44.58h-1.1c.8-4.58,4.51-8.01,8.79-8.01s8.02,3.49,8.87,8.01h-1.18c-.74-3.96-3.97-6.84-7.69-6.84s-6.97,2.81-7.68,6.84"/>
    <path class="cls-1" d="M78.04,44.57c.29-1.67,1.2-3.1,2.45-4.01v3.99l-2.45.02Z"/>
    <path class="cls-1" d="M89.97,44.57c-.3-1.67-1.2-3.1-2.45-4.01v3.99l2.45.02Z"/>
    <path class="cls-1" d="M86.64,40.86c0-.94-1.51-1.86-2.59-1.86s-2.61.87-2.61,1.88v3.72h5.2v-3.75Z"/>
    <rect class="cls-1" x="57.93" y="16.14" width="1.45" height="3.15"/>
    <rect class="cls-1" x="43.79" y="16.14" width="1.45" height="3.15"/>
    <polygon class="cls-1" points="85.84 9.36 82.09 9.36 82.09 7.41 83.05 7.41 83.05 5.36 84.99 5.36 84.99 7.4 85.84 7.4 85.84 9.36"/>
    <polygon class="cls-1" points="35.87 48.94 34.47 48.94 34.47 45.77 26.81 45.77 26.81 48.94 25.34 48.94 25.34 48.02 25.97 48.02 25.97 44.86 35.31 44.86 35.31 48.02 35.87 48.02 35.87 48.94"/>
    <path class="cls-1" d="M52.07,48.94v-12.42h-3.74v1.7h-.6v-13.43h-6.23v13.43h-.73v-1.7h-3.87v12.44l3.91-.02v-3.16h7.58v3.17h3.68ZM51.23,48.02h-2v-3.16h-9.26v3.17h-2.22s0-10.58,0-10.58h2.18v1.7h9.25v-1.7h2.06v10.58Z"/>
    <path class="cls-1" d="M118.01,12.71c-4.71.03-7.12,1.16-7.89,1.79,0,0,1.36-2.4,3.7-4.32.98-.8,2.36-1.55,3.35-1.53.67.02,1.67.54,1.84.69,0,0-.71-2.17-3.19-2.19-2.48-.01-7.45.79-9.49,5.92l-.15.35c-1.82-2.87-4.26-7.06-9.44-7.22,0,0-1.52.05-2.44.81,0,0,4.17,1.57,5.64,4.22,1.03,1.86,3.22,3.89,3.48,4.11.25.22-3.33-1.47-4.76-1.43-1.43.04-7.58.29-8.27,8.9-.09,1.06,1.53-5.33,8-5.11,3.69.13,3.61.72,3.61.72,0,0-9.18-.71-9.01,7.14.01.78-.45-4.31,9.27-4.02,0,0-6.07,5.02-5.44,8.85.64,3.83.69,2.13.69,2.13,0,0,.21-1.41.23-1.9.03-.82.78-1.29,1.07-1.67.84-1.1,4.98-4.47,5.35-5.97v38.6h-15.38v-14.25h-9.58v14.25h-15.82v-16.72h-9.34v16.72h-6.32v-14.25h-6.23v14.25h-7.72v-14.25h-6.23v14.25h-8.51V21.9c.55,1.58,4.4,4.86,5.19,5.95.28.39,1.02.87,1.03,1.7.01.5.19,1.91.19,1.91,0,0,.02,1.7.73-2.11.71-3.81-5.26-8.98-5.26-8.98,9.72-.06,9.16,5.02,9.19,4.24.32-7.84-8.86-7.35-8.86-7.35,0,0-.06-.6,3.62-.64,6.47-.07,7.96,6.36,7.89,5.3-.52-8.62-6.67-9.02-8.09-9.09-1.42-.07-5.04,1.53-4.78,1.32.26-.21,2.49-2.19,3.56-4.03,1.52-2.61,5.72-4.08,5.72-4.08-.91-.78-2.42-.86-2.42-.86-5.18.04-7.7,4.17-9.58,6.99l-.14-.35c-1.93-5.18-6.89-6.1-9.37-6.15-2.48-.04-3.24,2.11-3.24,2.11.17-.14,1.18-.64,1.85-.64.99,0,2.35.78,3.32,1.61,2.3,1.97,3.61,4.4,3.61,4.4-.76-.64-3.15-1.83-7.86-1.97-4.71-.14-5.34,3.95-5.34,3.95.12-.37,1.81-1.78,2.69-1.88,1.18-.14,2.81.96,4.45,1.74,1.64.78,3.24,1.15,4.16,1.19.92.05,2.18.38,2.18.38l.12.03C4.14,18.05,1.3,26.4,1.3,28.09s.63,2.25.63,2.25c-.29-2.48,2.65-5.5,5.59-6.42,1.52-.47,4.71-2.57,4.71-2.57-1.43,2.39-3.7,5.23-3.61,8.39.08,3.17,1.86,3.66,1.47,3.3-.39-.35-.7-2.6.29-3.72,4.46-5.01,5.49-6.93,5.49-6.93l.25-.05v39.22h-5.91v5.02h102.47v-5.02h-5.6V23.65l.19.05s.99,1.94,5.35,7.06c.97,1.14.62,3.38.22,3.72-.39.34,1.39-.11,1.54-3.27.15-3.16-2.07-6.06-3.45-8.48,0,0,3.14,2.17,4.65,2.68,2.92.99,5.8,4.08,5.46,6.55,0,0,.64-.54.68-2.23.03-1.7-2.64-10.11-12.06-11.8l.12-.03s1.26-.31,2.19-.33c.92-.02,2.53-.35,4.18-1.09,1.65-.74,3.31-1.8,4.49-1.64.88.12,2.26,2.41,2.37,2.78,0,0-.27-4.93-4.98-4.9M62.54,61.57h-.74v-14.25h-6.24v14.25h-.68v-15.8h7.66v15.8Z"/>
  </g>
</svg>