<?xml version="1.0" encoding="UTF-8"?>
<svg id="Capa_1" xmlns="http://www.w3.org/2000/svg" version="1.1" viewBox="0 0 212.99 70.15">
  <!-- Generator: Adobe Illustrator 30.3.0, SVG Export Plug-In . SVG Version: 2.1.3 Build 182)  -->
  <defs>
    <style>
      .st0 {
        fill: #9ea1a2;
      }

      .st1 {
        fill: #ff6b00;
      }
    </style>
  </defs>
  <path class="st1" d="M28.76,42.94c-.07.28-.13.57-.2.85l10.42,12.86h-1.21l-9.48-11.7c-.07.28-.13.57-.2.85l8.79,10.85h-1.21l-7.85-9.69c-.07.28-.13.57-.2.85l7.16,8.84h-1.21l-6.22-7.68c-.07.29-.13.57-.2.85l5.53,6.83h-1.21l-4.59-5.67c-.07.28-.13.57-.2.85l3.9,4.81h-1.21l-2.96-3.65c-.07.28-.13.57-.2.85l2.27,2.8h-1.21l-1.33-1.64c-.07.29-.13.57-.2.85l.64.79h-.8s-.09.29.02.58c.05.16.14.27.29.34.17.11.43.18.8.18,1.45,0,12.28,0,12.28,0l.26-1.09h0c.05-.21.1-.43.15-.64l-10.59-13.07Z"/>
  <path class="st1" d="M29.14,41.32c-.04.15-.07.31-.11.46l10.59,13.07.2-.86-10.59-13.07c-.03.13-.06.26-.09.4"/>
  <path class="st1" d="M29.5,39.76l10.59,13.07.2-.86-10.59-13.07c-.06.29-.13.57-.2.86"/>
  <path class="st1" d="M29.95,37.73l10.6,13.08.2-.86-10.61-13.09c-.06.29-.13.58-.19.87"/>
  <path class="st1" d="M30.31,34.47l-9.37-11.57c-.18.06-.37.12-.55.19-.05.02-.1.03-.15.05l9.21,11.37c.41-.1.69-.12.86-.04"/>
  <path class="st1" d="M30.43,35.56s-.02.08-.03.13l10.62,13.1.2-.86-10.73-13.24c.06.18.03.47-.06.87"/>
  <path class="st1" d="M21.89,22.58l19.6,24.19.2-.86-19.1-23.57c-.23.08-.47.16-.7.24"/>
  <path class="st1" d="M23.54,22.03l18.41,22.72.2-.86-17.91-22.1c-.23.08-.47.16-.7.24"/>
  <path class="st1" d="M25.19,21.47l17.22,21.26.2-.86-16.72-20.64c-.23.08-.47.16-.7.24"/>
  <path class="st1" d="M26.85,20.91l16.04,19.79.2-.86-15.53-19.17c-.23.08-.47.16-.7.24"/>
  <path class="st1" d="M28.5,20.36l14.85,18.33.2-.86-14.35-17.71c-.23.08-.47.16-.7.24"/>
  <path class="st1" d="M30.16,19.8l13.66,16.86.2-.86-13.16-16.24c-.23.08-.47.16-.7.24"/>
  <path class="st1" d="M31.81,19.25l12.48,15.4.2-.86-11.97-14.78c-.23.08-.47.16-.7.24"/>
  <path class="st1" d="M33.46,18.69l11.29,13.93.2-.86-10.78-13.31c-.23.08-.47.16-.7.24"/>
  <polygon class="st1" points="35.11 18.13 45.22 30.6 45.42 29.75 35.82 17.9 35.11 18.13"/>
  <path class="st1" d="M36.77,17.58l8.91,11,.2-.86-8.41-10.38c-.23.08-.47.16-.7.24"/>
  <path class="st1" d="M38.88,16.89c-.14.04-.29.09-.46.14l7.73,9.54.2-.86-7.21-8.9-.25.08Z"/>
  <polygon class="st1" points="40.09 16.49 46.62 24.54 46.82 23.68 40.8 16.25 40.09 16.49"/>
  <path class="st1" d="M19.79,27.78l6.2,7.65c.24-.07.49-.13.73-.2l-7.13-8.8-.29-1.98,8.34,10.43c.24-.07.49-.13.73-.2l-9.09-11.22c-.06.03-.11.04-.15.06l-.51.17s-.73.3-.35,2.26c.38,1.95,1.58,11.11,1.58,11.11l1.2-.32s.06-.01.1-.02c.13-.03.26-.07.39-.1l-.56-.7-.27-1.82,1.82,2.25c.24-.07.49-.13.73-.2l-2.75-3.4-.27-1.82,4.01,4.95c.24-.07.49-.13.73-.2l-4.94-6.09-.27-1.82Z"/>
  <path class="st1" d="M43.31,15.39l-1.15.27c.66,2.77,2.52,5.12,5.05,6.41l.3-1.18c-2.1-1.15-3.64-3.16-4.2-5.5"/>
  <path class="st1" d="M67.04,31.07l-7.92.02-1.01,4.49,8.94-.02-1.02,4.65-15.16.04,4.81-22.24,14.66-.04-1.04,4.64-8.36.02-.9,3.92,7.98-.02-1,4.54ZM71.02,34.62c1.36.67,3.35,1.2,5.5,1.2,1.79.03,3.37-.63,3.37-2.01,0-1.18-1.08-1.82-3.1-2.91-2.36-1.29-4.69-3.04-4.7-5.76-.01-4.63,4.4-7.49,10.15-7.5,3.03,0,4.69.49,5.72.94l-1.83,4.56c-.82-.36-2.42-.86-4.26-.82-2.15,0-3.3.84-3.3,1.96,0,1,1.27,1.69,3.3,2.85,2.85,1.47,4.55,3.32,4.56,5.66.01,5.25-4.82,7.69-10.27,7.71-3.65,0-5.95-.74-7.02-1.34l1.9-4.52ZM96.07,22.72l-5.83.02,1.08-4.83,17.96-.05-1.05,4.83-5.92.02-3.76,17.42-6.23.02,3.76-17.42ZM112.42,35.08l-2.33,5.01-6.5.02,11.56-22.26,7.92-.02,1.98,22.23-6.42.02-.16-5.01-6.04.02ZM118.34,31.03l-.14-4.22c-.05-1.24-.06-3.31-.13-4.77h-.08c-.63,1.46-1.4,3.57-1.99,4.77l-1.92,4.23h4.25ZM147.35,39.99l1.32-7.67c.4-2.3.95-5.18,1.72-8.72h-.11c-1.43,3.17-2.96,6.26-4.14,8.44l-3.91,7.49h-4.79s-.43-7.45-.43-7.45c-.12-2.08-.3-5.21-.36-8.45h-.08c-.78,3.29-1.49,6.43-2.1,8.72l-2.04,7.67-5.6.02,6.37-22.25,7.92-.02.31,7.49c.08,2,.31,4.69.28,7.12h.14c.91-2.44,2.25-5.22,3.23-7.17l3.62-7.46,7.96-.02-3.43,22.24-5.87.02ZM161.97,18.14c1.73-.36,4.34-.56,6.71-.57,2.09,0,4.87.23,6.82,1.5,1.72,1.03,2.72,2.73,2.73,4.7,0,3.05-1.61,5.27-3.62,6.61-2.04,1.36-4.95,2-7.86,2.01-.7,0-1.33-.07-1.75-.08l-1.67,7.65-6.08.02,4.72-21.83ZM165.95,27.91c.39.05.84.1,1.55.1,2.97,0,4.49-1.98,4.48-3.77,0-1.72-1.35-2.36-3.03-2.36-.78,0-1.36.04-1.71.1l-1.29,5.93ZM183.44,34.89l-2.33,5.01-6.5.02,11.56-22.26,7.92-.02,1.98,22.23-6.42.02-.16-5.01-6.04.02ZM189.36,30.85l-.14-4.22c-.05-1.24-.06-3.31-.13-4.77h-.08c-.63,1.46-1.4,3.57-1.99,4.77l-1.92,4.23h4.25Z"/>
  <path class="st0" d="M47.58,46.88l.43-2.21h8.79l-.42,2.21h-3.16l-1.81,9.61h-2.52l1.81-9.61h-3.11ZM60.69,44.67l-1.29,6.8c-.08.41-.14.89-.14,1.4.01.96.59,1.7,1.72,1.7,1.32,0,2.19-.88,2.61-3.08l1.3-6.82h2.52l-1.27,6.72c-.69,3.58-2.26,5.29-5.47,5.29-2.44,0-3.93-1.25-3.93-3.76,0-.51.07-1.1.17-1.66l1.25-6.59h2.52ZM72.92,44.67h2.52l-1.82,9.61h4.54l-.42,2.2h-7.07l2.24-11.82ZM88.14,54.99c-1.1,1.07-2.59,1.69-4.36,1.69-3.06,0-4.79-2.18-4.79-4.92,0-2.13.79-4.26,2.18-5.59,1.1-1.05,2.62-1.68,4.31-1.68,3.12,0,4.77,2.1,4.77,4.93,0,2.14-.75,4.24-2.11,5.58M83.15,47.48c-.94.94-1.47,2.77-1.47,4.2,0,1.66.75,2.91,2.48,2.91.74,0,1.43-.33,1.97-.86.93-.93,1.44-2.86,1.44-4.23,0-1.47-.53-2.9-2.39-2.9-.79,0-1.48.34-2.03.89M100.61,55.95c-.91.3-2.33.66-3.83.66-1.62,0-2.96-.42-3.94-1.29-.95-.84-1.48-2.14-1.48-3.64,0-2.21.9-4.12,2.41-5.4,1.33-1.11,3.17-1.72,5.21-1.72,1.54,0,2.68.3,3.13.52l-.75,2.13c-.53-.25-1.46-.49-2.51-.49-1.17,0-2.22.33-3.01.95-1.03.82-1.71,2.21-1.71,3.82,0,1.99,1.18,2.98,3.04,2.98.59,0,1-.09,1.29-.21l.47-2.48h-1.84l.4-2.02h4.29l-1.18,6.19ZM112.3,54.99c-1.1,1.07-2.59,1.69-4.36,1.69-3.06,0-4.79-2.18-4.79-4.92,0-2.13.79-4.26,2.18-5.59,1.1-1.05,2.62-1.68,4.31-1.68,3.12,0,4.78,2.1,4.78,4.93,0,2.14-.75,4.24-2.11,5.58M107.31,47.48c-.94.94-1.48,2.77-1.48,4.2,0,1.66.75,2.91,2.48,2.91.74,0,1.43-.33,1.97-.86.93-.93,1.44-2.86,1.44-4.23,0-1.47-.53-2.9-2.39-2.9-.79,0-1.48.34-2.03.89"/>
</svg>