<?xml version="1.0" encoding="UTF-8"?>
<svg id="Capa_2" xmlns="http://www.w3.org/2000/svg" version="1.1" viewBox="0 0 350.2 353.1">
  <!-- Generator: Adobe Illustrator 30.3.0, SVG Export Plug-In . SVG Version: 2.1.3 Build 182)  -->
  <defs>
    <style>
      .st0 {
        fill: #1d1d1b;
      }

      .st1 {
        fill: none;
        stroke: #ba1818;
        stroke-dasharray: 5;
        stroke-miterlimit: 10;
        stroke-width: .8px;
      }

      .st2 {
        fill: #e8e8e8;
      }
    </style>
  </defs>
  <path class="st0" d="M1.6,49.7c0,19.2,9.1,36.6,24.1,49.6,15-13,24.1-30.5,24.1-49.6S40.6,13.1,25.7,0C10.7,13.1,1.6,30.5,1.6,49.7Z"/>
  <rect class="st0" x="1.6" y="121.9" width="48.2" height="99.2"/>
  <path class="st2" d="M50.1,49.7c0,19.2,9.1,36.6,24.1,49.6,14.9-13,24.1-30.5,24.1-49.6S89.2,13.1,74.2,0c-15,13-24.1,30.5-24.1,49.6h0Z"/>
  <rect class="st2" x="50.1" y="121.9" width="48.2" height="99.2"/>
  <rect class="st0" x="122.6" y="121.9" width="99.2" height="99.2"/>
  <circle class="st0" cx="172.2" cy="49.7" r="49.6"/>
  <path class="st0" d="M344.8,99.3h-99c0-54.8,44.4-99.2,99.2-99.2"/>
  <path class="st0" d="M101,341.1v-99.2h0c0,27.4-22.2,49.5-49.6,49.5S1.8,269.3,1.8,241.9h0v99.2h99.2,0Z"/>
  <path class="st0" d="M247.3,122c27.4,0,49.6,22.2,49.6,49.6s-22.2,49.6-49.6,49.6v-99.2Z"/>
  <polygon class="st0" points="204.3 284.7 204.3 241.9 146.3 241.9 146.3 284.7 125.7 284.7 125.7 341.1 224.9 341.1 224.9 284.7 204.3 284.7"/>
  <line class="st1" x1="49.5" y1="124" x2="49.5" y2="223.1"/>
</svg>