<?xml version="1.0" encoding="UTF-8"?>
<svg id="Capa_2" data-name="Capa 2" xmlns="http://www.w3.org/2000/svg" viewBox="0 0 469.2 223.1">
  <defs>
    <style>
      .cls-1, .cls-2, .cls-3 {
        fill: none;
        stroke: #ba1818;
        stroke-miterlimit: 10;
        stroke-width: .75px;
      }

      .cls-4 {
        fill: #1d1d1b;
      }

      .cls-2 {
        stroke-dasharray: 5;
      }

      .cls-3 {
        stroke-dasharray: 4.96 4.96;
      }

      .cls-5 {
        fill: #e8e8e8;
      }
    </style>
  </defs>
  <g id="Capa_1-2" data-name="Capa 1">
    <g>
      <path class="cls-4" d="M1.57,49.65c0,19.15,9.15,36.57,24.09,49.61,14.95-13.04,24.09-30.46,24.09-49.61S40.61,13.08,25.66.04C10.71,13.08,1.57,30.5,1.57,49.65Z"/>
      <rect class="cls-4" x="-23.94" y="147.43" width="99.21" height="48.19" transform="translate(-145.86 197.19) rotate(-90)"/>
    </g>
    <g>
      <path class="cls-5" d="M50.12,49.65c0,19.15,9.15,36.57,24.09,49.61,14.95-13.04,24.09-30.46,24.09-49.61S89.17,13.08,74.22.04c-14.95,13.04-24.09,30.46-24.09,49.61Z"/>
      <rect class="cls-5" x="24.61" y="147.43" width="99.21" height="48.19" transform="translate(-97.31 245.74) rotate(-90)"/>
    </g>
    <g>
      <rect class="cls-4" x="122.62" y="121.92" width="99.21" height="99.21" transform="translate(344.45 343.05) rotate(180)"/>
      <circle class="cls-4" cx="172.22" cy="49.65" r="49.61"/>
    </g>
    <g>
      <path class="cls-4" d="M344.78,99.25h-99.02C245.76,44.46,290.17.04,344.97.04"/>
      <path class="cls-4" d="M344.97,221.13v-99.21h0c-.05,27.36-22.24,49.52-49.6,49.52s-49.56-22.16-49.6-49.52h0v99.21h99.21Z"/>
    </g>
    <g>
      <path class="cls-4" d="M418.26.04c27.4,0,49.61,22.21,49.61,49.61s-22.21,49.61-49.61,49.61V.04Z"/>
      <polygon class="cls-4" points="448.33 164.7 448.33 121.92 390.3 121.92 390.3 164.7 369.71 164.7 369.71 221.13 468.92 221.13 468.92 164.7 448.33 164.7"/>
    </g>
    <g>
      <polyline class="cls-1" points="122.2 2.88 122.2 .38 124.7 .38"/>
      <line class="cls-3" x1="129.65" y1=".38" x2="216.43" y2=".38"/>
      <polyline class="cls-1" points="218.91 .38 221.41 .38 221.41 2.88"/>
      <line class="cls-3" x1="221.41" y1="7.83" x2="221.41" y2="94.61"/>
      <polyline class="cls-1" points="221.41 97.09 221.41 99.59 218.91 99.59"/>
      <line class="cls-3" x1="213.95" y1="99.59" x2="127.17" y2="99.59"/>
      <polyline class="cls-1" points="124.7 99.59 122.2 99.59 122.2 97.09"/>
      <line class="cls-3" x1="122.2" y1="92.13" x2="122.2" y2="5.35"/>
    </g>
    <g>
      <polyline class="cls-1" points="245.63 2.88 245.63 .38 248.13 .38"/>
      <line class="cls-3" x1="253.09" y1=".38" x2="339.87" y2=".38"/>
      <polyline class="cls-1" points="342.35 .38 344.85 .38 344.85 2.88"/>
      <line class="cls-3" x1="344.85" y1="7.83" x2="344.85" y2="94.61"/>
      <polyline class="cls-1" points="344.85 97.09 344.85 99.59 342.35 99.59"/>
      <line class="cls-3" x1="337.39" y1="99.59" x2="250.61" y2="99.59"/>
      <polyline class="cls-1" points="248.13 99.59 245.63 99.59 245.63 97.09"/>
      <line class="cls-3" x1="245.63" y1="92.13" x2="245.63" y2="5.35"/>
    </g>
    <g>
      <polyline class="cls-1" points="369.61 2.88 369.61 .38 372.11 .38"/>
      <line class="cls-3" x1="377.07" y1=".38" x2="463.84" y2=".38"/>
      <polyline class="cls-1" points="466.32 .38 468.82 .38 468.82 2.88"/>
      <line class="cls-3" x1="468.82" y1="7.83" x2="468.82" y2="94.61"/>
      <polyline class="cls-1" points="468.82 97.09 468.82 99.59 466.32 99.59"/>
      <line class="cls-3" x1="461.36" y1="99.59" x2="374.59" y2="99.59"/>
      <polyline class="cls-1" points="372.11 99.59 369.61 99.59 369.61 97.09"/>
      <line class="cls-3" x1="369.61" y1="92.13" x2="369.61" y2="5.35"/>
    </g>
    <g>
      <polyline class="cls-1" points="369.61 124.16 369.61 121.66 372.11 121.66"/>
      <line class="cls-3" x1="377.07" y1="121.66" x2="463.84" y2="121.66"/>
      <polyline class="cls-1" points="466.32 121.66 468.82 121.66 468.82 124.16"/>
      <line class="cls-3" x1="468.82" y1="129.12" x2="468.82" y2="215.89"/>
      <polyline class="cls-1" points="468.82 218.37 468.82 220.87 466.32 220.87"/>
      <line class="cls-3" x1="461.36" y1="220.87" x2="374.59" y2="220.87"/>
      <polyline class="cls-1" points="372.11 220.87 369.61 220.87 369.61 218.37"/>
      <line class="cls-3" x1="369.61" y1="213.41" x2="369.61" y2="126.64"/>
    </g>
    <g>
      <polyline class="cls-1" points="245.09 124.16 245.09 121.66 247.59 121.66"/>
      <line class="cls-3" x1="252.55" y1="121.66" x2="339.33" y2="121.66"/>
      <polyline class="cls-1" points="341.81 121.66 344.31 121.66 344.31 124.16"/>
      <line class="cls-3" x1="344.31" y1="129.12" x2="344.31" y2="215.89"/>
      <polyline class="cls-1" points="344.31 218.37 344.31 220.87 341.81 220.87"/>
      <line class="cls-3" x1="336.85" y1="220.87" x2="250.07" y2="220.87"/>
      <polyline class="cls-1" points="247.59 220.87 245.09 220.87 245.09 218.37"/>
      <line class="cls-3" x1="245.09" y1="213.41" x2="245.09" y2="126.64"/>
    </g>
    <g>
      <polyline class="cls-1" points=".38 2.88 .38 .38 2.88 .38"/>
      <line class="cls-3" x1="7.83" y1=".38" x2="94.61" y2=".38"/>
      <polyline class="cls-1" points="97.09 .38 99.59 .38 99.59 2.88"/>
      <line class="cls-3" x1="99.59" y1="7.83" x2="99.59" y2="94.61"/>
      <polyline class="cls-1" points="99.59 97.09 99.59 99.59 97.09 99.59"/>
      <line class="cls-3" x1="92.13" y1="99.59" x2="5.35" y2="99.59"/>
      <polyline class="cls-1" points="2.88 99.59 .38 99.59 .38 97.09"/>
      <line class="cls-3" x1=".38" y1="92.13" x2=".38" y2="5.35"/>
    </g>
    <g>
      <polyline class="cls-1" points="122.2 124.16 122.2 121.66 124.7 121.66"/>
      <line class="cls-3" x1="129.65" y1="121.66" x2="216.43" y2="121.66"/>
      <polyline class="cls-1" points="218.91 121.66 221.41 121.66 221.41 124.16"/>
      <line class="cls-3" x1="221.41" y1="129.12" x2="221.41" y2="215.89"/>
      <polyline class="cls-1" points="221.41 218.37 221.41 220.87 218.91 220.87"/>
      <line class="cls-3" x1="213.95" y1="220.87" x2="127.17" y2="220.87"/>
      <polyline class="cls-1" points="124.7 220.87 122.2 220.87 122.2 218.37"/>
      <line class="cls-3" x1="122.2" y1="213.41" x2="122.2" y2="126.64"/>
    </g>
    <g>
      <polyline class="cls-1" points="1.45 124.16 1.45 121.66 3.95 121.66"/>
      <line class="cls-3" x1="8.91" y1="121.66" x2="95.69" y2="121.66"/>
      <polyline class="cls-1" points="98.17 121.66 100.67 121.66 100.67 124.16"/>
      <line class="cls-3" x1="100.67" y1="129.12" x2="100.67" y2="215.89"/>
      <polyline class="cls-1" points="100.67 218.37 100.67 220.87 98.17 220.87"/>
      <line class="cls-3" x1="93.21" y1="220.87" x2="6.43" y2="220.87"/>
      <polyline class="cls-1" points="3.95 220.87 1.45 220.87 1.45 218.37"/>
      <line class="cls-3" x1="1.45" y1="213.41" x2="1.45" y2="126.64"/>
    </g>
    <line class="cls-2" x1="50.54" y1=".16" x2="50.54" y2="99.25"/>
    <line class="cls-2" x1="49.54" y1="124.02" x2="49.54" y2="223.1"/>
  </g>
</svg>