<?xml version="1.0" encoding="UTF-8"?>
<svg id="Capa_2" data-name="Capa 2" xmlns="http://www.w3.org/2000/svg" viewBox="0 0 1082.3 454.4">
  <defs>
    <style>
      .cls-1 {
        fill: #e0e0e0;
      }

      .cls-2 {
        stroke-dasharray: 10.51;
        stroke-width: .88px;
      }

      .cls-2, .cls-3, .cls-4, .cls-5, .cls-6 {
        fill: none;
        stroke: #c40038;
        stroke-miterlimit: 10;
      }

      .cls-7 {
        fill: #d4859a;
      }

      .cls-8 {
        fill: #f2c14e;
      }

      .cls-9 {
        fill: #5dade2;
      }

      .cls-10 {
        fill: #fff;
      }

      .cls-3, .cls-4, .cls-5, .cls-6 {
        stroke-width: 1.2px;
      }

      .cls-4 {
        stroke-dasharray: 14.44;
      }

      .cls-11 {
        fill: #e85d75;
      }

      .cls-5 {
        stroke-dasharray: 14.61 14.61;
      }

      .cls-12 {
        fill: #2d936c;
      }

      .cls-13 {
        fill: #e8863a;
      }

      .cls-6 {
        stroke-dasharray: 14.14 14.14;
      }
    </style>
  </defs>
  <g id="Capa_1-2" data-name="Capa 1">
    <g>
      <rect class="cls-10" x="161.55" y="161.42" width="123.73" height="119.46"/>
      <rect class="cls-10" x="90.94" y="90.12" width="90.34" height="90.34"/>
      <rect class="cls-8" x="181.29" y="90.12" width="90.34" height="90.34"/>
      <path class="cls-12" d="M271.63,90.12v90.34h-90.34l90.34-90.34Z"/>
      <rect class="cls-9" x="271.63" y="90.12" width="90.34" height="90.34"/>
      <path class="cls-13" d="M271.63,90.12v90.34h90.34l-90.34-90.34Z"/>
      <rect class="cls-7" x="271.63" y="180.47" width="90.34" height="90.34"/>
      <path class="cls-11" d="M271.63,180.47h90.34v90.34l-90.34-90.34Z"/>
      <rect class="cls-13" x="90.94" y="180.47" width="90.34" height="90.34"/>
      <path class="cls-9" d="M90.94,225.64c0-24.95,20.22-45.17,45.17-45.17s45.17,20.22,45.17,45.17-20.22,45.17-45.17,45.17-45.17-20.22-45.17-45.17"/>
      <rect class="cls-7" x="91.84" y="90.12" width="90.34" height="90.34"/>
      <path class="cls-8" d="M91.84,180.47v-90.34c49.9,0,90.34,40.45,90.34,90.34h-90.34Z"/>
      <rect class="cls-8" x="90.94" y="270.81" width="90.34" height="90.34"/>
      <path class="cls-9" d="M90.94,270.81h90.34l-90.34,90.34v-90.34Z"/>
      <rect class="cls-11" x="181.29" y="270.81" width="90.34" height="90.34"/>
      <path class="cls-12" d="M181.29,270.81c24.95,0,45.17,20.22,45.17,45.17s-20.22,45.17-45.17,45.17v-90.34Z"/>
      <rect class="cls-13" x="271.63" y="270.81" width="90.34" height="90.34"/>
      <rect class="cls-9" x="271.63" y="306.95" width="90.34" height="54.21"/>
      <rect class="cls-9" x="271.55" y="270.81" width="45.17" height="45.17"/>
      <g fill="#2c2c2c">
        <path d="M455.71,155.9h-23.24l-4.11,10.66h-20.97l26.73-61.15h20.27l26.73,61.15h-21.32l-4.11-10.66ZM450.03,141.05l-5.94-15.38-5.94,15.38h11.88Z"/>
        <path d="M550.07,105.4l-25.86,61.15h-20.27l-25.86-61.15h22.19l14.59,35.73,14.94-35.73h20.27Z"/>
        <path d="M606.69,151.01v15.55h-50.85v-61.15h49.71v15.55h-29.44v7.16h25.86v14.85h-25.86v8.04h30.58Z"/>
      </g>
      <g fill="#2c2c2c">
        <path d="M413.58,293.68v26.12h32.59v4.02h-32.59v27h-4.46v-61.15h40.89v4.02h-36.43Z"/>
        <path d="M478.14,324.87v-35.21h4.46v35.03c0,15.29,7.34,22.45,20.09,22.45s20.01-7.16,20.01-22.45v-35.03h4.46v35.21c0,17.47-9.35,26.38-24.55,26.38s-24.46-8.91-24.46-26.38Z"/>
        <path d="M612.17,289.67v61.15h-3.67l-41.67-53.12v53.12h-4.46v-61.15h3.76l41.59,53.12v-53.12h4.46Z"/>
        <path d="M647.91,289.67h24.2c19.39,0,32.5,12.76,32.5,30.58s-13.1,30.58-32.5,30.58h-24.2v-61.15ZM671.76,346.8c17.3,0,28.39-11.01,28.39-26.56s-11.1-26.56-28.39-26.56h-19.39v53.12h19.39Z"/>
        <path d="M771.45,333.61h-35.47l-7.78,17.21h-4.81l28.13-61.15h4.46l28.13,61.15h-4.81l-7.86-17.21ZM769.79,329.85l-16.08-35.29-15.99,35.29h32.06Z"/>
        <path d="M802.9,320.24c0-17.82,13.54-31.01,31.71-31.01,8.65,0,16.42,2.8,21.75,8.47l-2.8,2.88c-5.24-5.16-11.62-7.25-18.78-7.25-15.64,0-27.43,11.53-27.43,26.91s11.79,26.91,27.43,26.91c7.16,0,13.54-2.18,18.78-7.34l2.8,2.88c-5.33,5.68-13.1,8.56-21.75,8.56-18.17,0-31.71-13.19-31.71-31.02Z"/>
        <path d="M885.73,289.67h4.46v61.15h-4.46v-61.15Z"/>
        <path d="M920.07,320.24c0-17.73,13.54-31.01,31.8-31.01s31.8,13.19,31.8,31.01-13.63,31.02-31.8,31.02-31.8-13.28-31.8-31.02ZM979.13,320.24c0-15.46-11.71-26.91-27.26-26.91s-27.35,11.44-27.35,26.91,11.71,26.91,27.35,26.91,27.26-11.44,27.26-26.91ZM959.03,274.38h6.29l-13.72,10.31h-4.72l12.14-10.31Z"/>
      </g>
      <g fill="#2c2c2c">
        <path d="M462,256.48l-.17-27.87-13.28,22.37h-9.09l-13.28-21.4v26.91h-18.78v-61.15h16.95l19.92,32.59,19.39-32.59h16.95l.17,61.15h-18.78Z"/>
        <path d="M536.18,245.82h-23.24l-4.11,10.66h-20.97l26.73-61.15h20.27l26.73,61.15h-21.32l-4.11-10.66ZM530.5,230.97l-5.94-15.38-5.94,15.38h11.88Z"/>
        <path d="M594.89,241.1h-5.59v15.38h-20.62v-61.15h29.44c17.04,0,27.87,8.91,27.87,23.06,0,8.82-4.19,15.46-11.53,19.22l12.84,18.87h-22.02l-10.4-15.38ZM596.82,211.22h-7.51v14.33h7.51c5.68,0,8.39-2.71,8.39-7.16s-2.71-7.16-8.39-7.16Z"/>
        <path d="M637.53,195.32h20.62v61.15h-20.62v-61.15Z"/>
        <path d="M713.54,245.82h-23.24l-4.11,10.66h-20.97l26.73-61.15h20.27l26.73,61.15h-21.32l-4.11-10.66ZM707.86,230.97l-5.94-15.38-5.94,15.38h11.88Z"/>
      </g>
    </g>
    <rect class="cls-1" x=".86" y="2.17" width="90.47" height="90.47" transform="translate(-1.31 93.5) rotate(-90)"/>
    <rect class="cls-1" x="989.78" y="363.31" width="90.47" height="90.47" transform="translate(626.47 1443.57) rotate(-90)"/>
    <rect class="cls-1" x="361.19" y="364.69" width="90.47" height="87.05" transform="translate(-1.78 814.64) rotate(-90)"/>
    <g>
      <polyline class="cls-3" points="1074.48 1.07 1081.7 1.07 1081.7 8.29"/>
      <line class="cls-6" x1="1081.7" y1="22.43" x2="1081.7" y2="439.51"/>
      <polyline class="cls-3" points="1081.7 446.58 1081.7 453.8 1074.48 453.8"/>
      <line class="cls-5" x1="1059.87" y1="453.8" x2="15.38" y2="453.8"/>
      <polyline class="cls-3" points="8.08 453.8 .86 453.8 .86 446.58"/>
      <line class="cls-6" x1=".86" y1="432.44" x2=".86" y2="15.36"/>
      <polyline class="cls-3" points=".86 8.29 .86 1.07 8.08 1.07"/>
      <line class="cls-5" x1="22.68" y1="1.07" x2="1067.17" y2="1.07"/>
    </g>
    <line class="cls-2" x1="362.56" x2="362.56" y2="454.03"/>
    <line class="cls-2" x1="989.56" x2="989.56" y2="454.03"/>
    <line class="cls-2" x1="272.6" x2="272.6" y2="454.03"/>
    <line class="cls-2" x1="407.07" x2="407.07" y2="454.03"/>
    <line class="cls-2" x1="181.43" x2="181.43" y2="454.03"/>
    <line class="cls-2" x1="91.46" x2="91.46" y2="454.03"/>
    <line class="cls-4" x1="0" y1="91.46" x2="1080.49" y2="91.47"/>
    <line class="cls-4" x1="0" y1="181.43" x2="1080.49" y2="181.43"/>
    <line class="cls-4" x1="0" y1="272.6" x2="1080.49" y2="272.6"/>
    <line class="cls-4" x1="0" y1="362.56" x2="1080.49" y2="362.56"/>
  </g>
</svg>