<?xml version="1.0" encoding="UTF-8"?>
<svg id="Capa_2" data-name="Capa 2" xmlns="http://www.w3.org/2000/svg" viewBox="0 0 454.24 573.4">
  <defs>
    <style>
      .cls-1 {
        fill: #e0e0e0;
      }

      .cls-2 {
        stroke-dasharray: 11.8;
        stroke-width: .98px;
      }

      .cls-2, .cls-3, .cls-4, .cls-5, .cls-6 {
        fill: none;
        stroke: #c40038;
        stroke-miterlimit: 10;
      }

      .cls-3 {
        stroke-dasharray: 10.51;
      }

      .cls-3, .cls-4, .cls-5, .cls-6 {
        stroke-width: .88px;
      }

      .cls-4 {
        stroke-dasharray: 10.28 10.28;
      }

      .cls-7 {
        fill: #d4859a;
      }

      .cls-8 {
        fill: #f2c14e;
      }

      .cls-9 {
        fill: #5dade2;
      }

      .cls-10 {
        fill: #fff;
      }

      .cls-11 {
        fill: #e85d75;
      }

      .cls-6 {
        stroke-dasharray: 10.6 10.6;
      }

      .cls-12 {
        fill: #2d936c;
      }

      .cls-13 {
        fill: #e8863a;
      }
    </style>
  </defs>
  <g id="Capa_1-2" data-name="Capa 1">
    <rect class="cls-10" x="162.13" y="162.58" width="123.9" height="119.63"/>
    <rect class="cls-10" x="91.42" y="91.18" width="90.47" height="90.47"/>
    <rect class="cls-8" x="181.9" y="91.18" width="90.47" height="90.47"/>
    <path class="cls-12" d="M272.37,91.18v90.47h-90.47l90.47-90.47Z"/>
    <rect class="cls-9" x="272.37" y="91.18" width="90.47" height="90.47"/>
    <path class="cls-13" d="M272.37,91.18v90.47h90.47l-90.47-90.47Z"/>
    <rect class="cls-7" x="272.37" y="181.65" width="90.47" height="90.47"/>
    <path class="cls-11" d="M272.37,181.65h90.47v90.47l-90.47-90.47Z"/>
    <rect class="cls-13" x="91.42" y="181.65" width="90.47" height="90.47"/>
    <path class="cls-9" d="M91.42,226.89c0-24.98,20.25-45.24,45.24-45.24s45.24,20.25,45.24,45.24-20.25,45.24-45.24,45.24-45.24-20.25-45.24-45.24"/>
    <rect class="cls-7" x="92.33" y="91.18" width="90.47" height="90.47"/>
    <path class="cls-8" d="M92.33,181.65v-90.47c49.97,0,90.47,40.51,90.47,90.47h-90.47Z"/>
    <rect class="cls-8" x="91.42" y="272.13" width="90.47" height="90.47"/>
    <path class="cls-9" d="M91.42,272.13h90.47l-90.47,90.47v-90.47Z"/>
    <rect class="cls-11" x="181.9" y="272.13" width="90.47" height="90.47"/>
    <path class="cls-12" d="M181.9,272.13c24.98,0,45.24,20.25,45.24,45.24s-20.25,45.24-45.24,45.24v-90.47Z"/>
    <rect class="cls-13" x="272.37" y="272.13" width="90.47" height="90.47"/>
    <rect class="cls-9" x="272.37" y="308.32" width="90.47" height="54.28"/>
    <rect class="cls-9" x="317.61" y="272.13" width="45.24" height="45.24"/>
    <g fill="#2c2c2c">
      <path d="M114.52,431.01h-11.01l-1.95,5.05h-9.94l12.67-28.98h9.61l12.67,28.98h-10.1l-1.95-5.05ZM111.83,423.97l-2.82-7.29-2.82,7.29h5.63Z"/>
      <path d="M159.23,407.08l-12.25,28.98h-9.61l-12.25-28.98h10.52l6.91,16.93,7.08-16.93h9.61Z"/>
      <path d="M186.07,428.69v7.37h-24.1v-28.98h23.56v7.37h-13.95v3.39h12.25v7.04h-12.25v3.81h14.49Z"/>
      <path d="M231.69,436.06l-.08-13.21-6.29,10.6h-4.31l-6.29-10.14v12.75h-8.9v-28.98h8.03l9.44,15.44,9.19-15.44h8.03l.08,28.98h-8.9Z"/>
      <path d="M266.85,431.01h-11.01l-1.95,5.05h-9.94l12.67-28.98h9.61l12.67,28.98h-10.1l-1.95-5.05ZM264.16,423.97l-2.82-7.29-2.82,7.29h5.63Z"/>
      <path d="M294.67,428.78h-2.65v7.29h-9.77v-28.98h13.95c8.07,0,13.21,4.22,13.21,10.93,0,4.18-1.99,7.33-5.46,9.11l6.09,8.94h-10.43l-4.93-7.29ZM295.58,414.62h-3.56v6.79h3.56c2.69,0,3.97-1.28,3.97-3.39s-1.28-3.39-3.97-3.39Z"/>
      <path d="M314.88,407.08h9.77v28.98h-9.77v-28.98Z"/>
      <path d="M350.9,431.01h-11.01l-1.95,5.05h-9.94l12.67-28.98h9.61l12.67,28.98h-10.1l-1.95-5.05ZM348.21,423.97l-2.82-7.29-2.82,7.29h5.63Z"/>
    </g>
    <g fill="#2c2c2c">
      <path d="M93.08,454.51v12.38h15.44v1.9h-15.44v12.79h-2.11v-28.98h19.38v1.9h-17.26Z"/>
      <path d="M123.68,469.29v-16.69h2.11v16.6c0,7.25,3.48,10.64,9.52,10.64s9.48-3.39,9.48-10.64v-16.6h2.11v16.69c0,8.28-4.43,12.5-11.63,12.5s-11.59-4.22-11.59-12.5Z"/>
      <path d="M187.19,452.61v28.98h-1.74l-19.75-25.17v25.17h-2.11v-28.98h1.78l19.71,25.17v-25.17h2.11Z"/>
      <path d="M204.13,452.61h11.47c9.19,0,15.4,6.04,15.4,14.49s-6.21,14.49-15.4,14.49h-11.47v-28.98ZM215.43,479.68c8.2,0,13.46-5.22,13.46-12.59s-5.26-12.59-13.46-12.59h-9.19v25.17h9.19Z"/>
      <path d="M262.67,473.43h-16.81l-3.68,8.16h-2.28l13.33-28.98h2.11l13.33,28.98h-2.28l-3.73-8.16ZM261.89,471.65l-7.62-16.73-7.58,16.73h15.19Z"/>
      <path d="M277.58,467.1c0-8.45,6.42-14.7,15.03-14.7,4.1,0,7.78,1.32,10.31,4.02l-1.32,1.37c-2.48-2.44-5.51-3.44-8.9-3.44-7.41,0-13,5.47-13,12.75s5.59,12.75,13,12.75c3.39,0,6.42-1.04,8.9-3.48l1.32,1.37c-2.53,2.69-6.21,4.06-10.31,4.06-8.61,0-15.03-6.25-15.03-14.7Z"/>
      <path d="M316.83,452.61h2.11v28.98h-2.11v-28.98Z"/>
      <path d="M333.1,467.1c0-8.4,6.42-14.7,15.07-14.7s15.07,6.25,15.07,14.7-6.46,14.7-15.07,14.7-15.07-6.29-15.07-14.7ZM361.09,467.1c0-7.33-5.55-12.75-12.92-12.75s-12.96,5.42-12.96,12.75,5.55,12.75,12.96,12.75,12.92-5.42,12.92-12.75ZM351.57,445.36h2.98l-6.5,4.89h-2.24l5.75-4.89Z"/>
    </g>
    <rect class="cls-1" x=".44" y=".86" width="90.47" height="90.47"/>
    <rect class="cls-1" x="362.37" y="362.9" width="90.47" height="87.05"/>
    <g>
      <polyline class="cls-5" points="453.17 567.7 453.17 572.96 447.91 572.96"/>
      <line class="cls-4" x1="437.63" y1="572.96" x2="10.83" y2="572.96"/>
      <polyline class="cls-5" points="5.69 572.96 .44 572.96 .44 567.7"/>
      <line class="cls-6" x1=".44" y1="557.11" x2=".44" y2="11.41"/>
      <polyline class="cls-5" points=".44 6.11 .44 .86 5.69 .86"/>
      <line class="cls-4" x1="15.97" y1=".86" x2="442.77" y2=".86"/>
      <polyline class="cls-5" points="447.91 .86 453.17 .86 453.17 6.11"/>
      <line class="cls-6" x1="453.17" y1="16.71" x2="453.17" y2="562.41"/>
    </g>
    <line class="cls-3" x1="454.24" y1="362.56" x2=".21" y2="362.56"/>
    <line class="cls-3" x1="454.24" y1="481.83" x2=".21" y2="481.83"/>
    <line class="cls-3" x1="454.24" y1="272.6" x2=".21" y2="272.6"/>
    <line class="cls-3" x1="454.24" y1="407.07" x2=".21" y2="407.07"/>
    <line class="cls-3" x1="454.24" y1="449.48" x2=".21" y2="449.48"/>
    <line class="cls-3" x1="454.24" y1="181.43" x2=".21" y2="181.43"/>
    <line class="cls-3" x1="454.24" y1="91.46" x2=".21" y2="91.46"/>
    <line class="cls-2" x1="362.77" y1="0" x2="362.77" y2="572.78"/>
    <line class="cls-2" x1="272.81" y1="0" x2="272.81" y2="572.78"/>
    <line class="cls-2" x1="181.64" y1="0" x2="181.64" y2="572.78"/>
    <line class="cls-2" x1="91.68" y1="0" x2="91.68" y2="572.78"/>
  </g>
</svg>