<?xml version="1.0" encoding="UTF-8"?>
<svg id="Capa_2" xmlns="http://www.w3.org/2000/svg" version="1.1" viewBox="0 0 309.05 421.11">
  <!-- Generator: Adobe Illustrator 30.3.0, SVG Export Plug-In . SVG Version: 2.1.3 Build 182)  -->
  <defs>
    <style>
      .st0 {
        fill: #595959;
      }

      .st1 {
        fill: #2c2c2c;
      }

      .st2 {
        fill: #ccc;
      }

      .st3 {
        isolation: isolate;
      }

      .st4 {
        fill: #fff;
      }

      .st5 {
        fill: #1a1a1a;
      }

      .st6 {
        fill: #999;
      }
    </style>
  </defs>
  <g id="Capa_1-2">
    <rect class="st4" x="84.24" y="78.92" width="136.95" height="132.23"/>
    <rect class="st4" x="6.09" width="100" height="100"/>
    <rect class="st2" x="106.09" width="100" height="100"/>
    <path class="st6" d="M206.09,0v100h-100L206.09,0Z"/>
    <rect class="st6" x="206.09" width="100" height="100"/>
    <path class="st0" d="M206.09,0v100h100L206.09,0Z"/>
    <rect class="st6" x="206.09" y="100" width="100" height="100"/>
    <path class="st5" d="M206.09,100h100v100l-100-100Z"/>
    <rect class="st0" x="6.09" y="100" width="100" height="100"/>
    <path class="st6" d="M6.09,150c0-27.61,22.39-50,50-50s50,22.39,50,50-22.39,50-50,50S6.09,177.61,6.09,150"/>
    <rect class="st5" x="7.09" width="100" height="100"/>
    <path class="st2" d="M7.09,100V0c55.23,0,100,44.77,100,100H7.09Z"/>
    <rect class="st2" x="6.09" y="200" width="100" height="100"/>
    <path class="st5" d="M6.09,200h100L6.09,300v-100Z"/>
    <rect class="st0" x="106.09" y="200" width="100" height="100"/>
    <path class="st6" d="M106.09,200c27.61,0,50,22.39,50,50s-22.39,50-50,50v-100Z"/>
    <rect class="st2" x="206.09" y="200" width="100" height="100"/>
    <rect class="st5" x="206.09" y="240" width="100" height="60"/>
    <rect class="st5" x="256.09" y="200" width="50" height="39.92"/>
    <g class="st3">
      <g class="st3">
        <path class="st1" d="M31.85,353.59h-13.55l-2.52,6.23H6.54l14.14-32.04h8.93l14.19,32.04h-9.43l-2.52-6.23ZM29.2,346.91l-4.12-10.25-4.12,10.25h8.24Z"/>
      </g>
      <g class="st3">
        <path class="st1" d="M79.91,327.78l-13.73,32.04h-8.93l-13.69-32.04h9.8l8.7,20.87,8.88-20.87h8.97Z"/>
      </g>
      <g class="st3">
        <path class="st1" d="M110.39,352.82v7h-25.73v-32.04h25.13v7h-16.16v5.4h14.24v6.77h-14.24v5.86h16.75Z"/>
        <path class="st1" d="M161.24,359.82l-.09-16.98-8.24,13.83h-4.03l-8.19-13.37v16.53h-8.38v-32.04h7.46l11.26,18.49,10.99-18.49h7.46l.09,32.04h-8.33Z"/>
        <path class="st1" d="M199.23,353.59h-13.55l-2.52,6.23h-9.25l14.15-32.04h8.93l14.19,32.04h-9.43l-2.52-6.23ZM196.57,346.91l-4.12-10.25-4.12,10.25h8.24Z"/>
        <path class="st1" d="M229.53,351.31h-4.94v8.51h-9.06v-32.04h14.65c8.74,0,14.24,4.53,14.24,11.86,0,4.71-2.29,8.19-6.27,10.12l6.91,10.07h-9.7l-5.81-8.51ZM229.62,334.92h-5.04v9.38h5.04c3.75,0,5.63-1.74,5.63-4.67s-1.88-4.71-5.63-4.71Z"/>
        <path class="st1" d="M251.17,327.78h9.06v32.04h-9.06v-32.04Z"/>
        <path class="st1" d="M289.94,353.59h-13.55l-2.52,6.23h-9.25l14.15-32.04h8.93l14.19,32.04h-9.43l-2.52-6.23ZM287.29,346.91l-4.12-10.25-4.12,10.25h8.24Z"/>
      </g>
    </g>
    <g class="st3">
      <g class="st3">
        <path class="st1" d="M7.92,379.23v13.69h17.07v2.11H7.92v14.14h-2.33v-32.04h21.42v2.11H7.92Z"/>
        <path class="st1" d="M41.97,395.57v-18.45h2.33v18.36c0,8.01,3.85,11.76,10.53,11.76s10.48-3.75,10.48-11.76v-18.36h2.33v18.45c0,9.16-4.9,13.82-12.86,13.82s-12.82-4.67-12.82-13.82Z"/>
        <path class="st1" d="M112.42,377.13v32.04h-1.92l-21.84-27.83v27.83h-2.33v-32.04h1.97l21.79,27.83v-27.83h2.33Z"/>
      </g>
      <g class="st3">
        <path class="st1" d="M130.67,377.13h12.68c10.16,0,17.03,6.68,17.03,16.02s-6.87,16.02-17.03,16.02h-12.68v-32.04ZM143.16,407.06c9.06,0,14.88-5.77,14.88-13.92s-5.81-13.92-14.88-13.92h-10.16v27.83h10.16Z"/>
        <path class="st1" d="M195.11,400.15h-18.58l-4.07,9.02h-2.52l14.74-32.04h2.33l14.74,32.04h-2.52l-4.12-9.02ZM194.24,398.18l-8.42-18.49-8.38,18.49h16.8Z"/>
      </g>
      <g class="st3">
        <path class="st1" d="M211.85,393.15c0-9.34,7.1-16.25,16.62-16.25,4.53,0,8.61,1.46,11.4,4.44l-1.46,1.51c-2.75-2.7-6.09-3.8-9.84-3.8-8.19,0-14.37,6.04-14.37,14.1s6.18,14.1,14.37,14.1c3.75,0,7.1-1.14,9.84-3.84l1.46,1.51c-2.79,2.98-6.87,4.49-11.4,4.49-9.52,0-16.62-6.91-16.62-16.25Z"/>
        <path class="st1" d="M255.47,377.13h2.33v32.04h-2.33v-32.04Z"/>
        <path class="st1" d="M273.68,393.15c0-9.29,7.1-16.25,16.66-16.25s16.66,6.91,16.66,16.25-7.14,16.25-16.66,16.25-16.66-6.96-16.66-16.25ZM304.63,393.15c0-8.1-6.13-14.1-14.28-14.1s-14.33,6-14.33,14.1,6.13,14.1,14.33,14.1,14.28-6,14.28-14.1ZM294.1,369.12h3.3l-7.19,5.4h-2.47l6.36-5.4Z"/>
      </g>
    </g>
  </g>
</svg>