<?xml version="1.0" encoding="UTF-8"?>
<svg id="Capa_2" xmlns="http://www.w3.org/2000/svg" version="1.1" viewBox="0 0 211.9 211.9">
  <!-- Generator: Adobe Illustrator 30.3.0, SVG Export Plug-In . SVG Version: 2.1.3 Build 182)  -->
  <defs>
    <style>
      .st0 {
        fill: #d4859a;
      }

      .st1 {
        fill: #f2c14e;
      }

      .st2 {
        fill: #5dade2;
      }

      .st3 {
        fill: #fff;
      }

      .st4 {
        fill: #e85d75;
      }

      .st5 {
        fill: #2d936c;
      }

      .st6 {
        fill: #e8863a;
      }
    </style>
  </defs>
  <g id="Capa_1-2">
    <g>
      <rect class="st3" y="0" width="70.6" height="70.6"/>
      <rect class="st1" x="70.6" y="0" width="70.6" height="70.6"/>
      <path class="st5" d="M141.3,0v70.6h-70.6L141.3,0Z"/>
      <rect class="st2" x="141.3" y="0" width="70.6" height="70.6"/>
      <path class="st6" d="M141.3,0v70.6h70.6L141.3,0Z"/>
      <rect class="st0" x="141.3" y="70.6" width="70.6" height="70.6"/>
      <path class="st4" d="M141.3,70.6h70.6v70.6l-70.6-70.6Z"/>
      <rect class="st6" y="70.6" width="70.6" height="70.6"/>
      <path class="st2" d="M0,106c0-19.5,15.8-35.3,35.3-35.3s35.3,15.8,35.3,35.3-15.8,35.3-35.3,35.3S0,125.5,0,106"/>
      <rect class="st0" x=".7" y="0" width="70.6" height="70.6"/>
      <path class="st1" d="M.7,70.6V0C39.7,0,71.3,31.6,71.3,70.6H.7Z"/>
      <rect class="st1" y="141.3" width="70.6" height="70.6"/>
      <path class="st2" d="M0,141.3h70.6L0,211.9v-70.6Z"/>
      <rect class="st4" x="70.6" y="141.3" width="70.6" height="70.6"/>
      <path class="st5" d="M70.6,141.3c19.5,0,35.3,15.8,35.3,35.3s-15.8,35.3-35.3,35.3v-70.6h0Z"/>
      <rect class="st6" x="141.3" y="141.3" width="70.6" height="70.6"/>
      <rect class="st2" x="141.3" y="169.5" width="70.6" height="42.4"/>
      <rect class="st2" x="176.6" y="141.3" width="35.3" height="35.3"/>
    </g>
  </g>
</svg>