<?xml version="1.0" encoding="UTF-8"?>
<svg id="Capa_1" xmlns="http://www.w3.org/2000/svg" version="1.1" viewBox="0 0 491.98 146.63">
  <!-- Generator: Adobe Illustrator 30.3.0, SVG Export Plug-In . SVG Version: 2.1.3 Build 182)  -->
  <defs>
    <style>
      .st0 {
        fill: #010101;
      }
    </style>
  </defs>
  <g>
    <path class="st0" d="M64.03,47.12h-18.05l-3.19,8.28h-16.28L47.27,7.91h15.74l20.76,47.49h-16.56l-3.19-8.28ZM59.62,35.59l-4.61-11.94-4.61,11.94h9.23Z"/>
    <path class="st0" d="M137.32,7.91l-20.08,47.49h-15.74L81.41,7.91h17.23l11.33,27.75,11.6-27.75h15.74Z"/>
    <path class="st0" d="M181.29,43.32v12.08h-39.49V7.91h38.61v12.08h-22.87v5.56h20.08v11.53h-20.08v6.24h23.75Z"/>
    <path class="st0" d="M256.06,55.4l-.14-21.64-10.31,17.37h-7.06l-10.31-16.62v20.9h-14.59V7.91h13.16l15.47,25.31,15.06-25.31h13.16l.14,47.49h-14.59Z"/>
    <path class="st0" d="M313.67,47.12h-18.05l-3.19,8.28h-16.28l20.76-47.49h15.74l20.76,47.49h-16.56l-3.19-8.28ZM309.26,35.59l-4.61-11.94-4.61,11.94h9.23Z"/>
    <path class="st0" d="M359.27,43.46h-4.34v11.94h-16.01V7.91h22.87c13.23,0,21.64,6.92,21.64,17.91,0,6.85-3.26,12.01-8.96,14.93l9.97,14.66h-17.1l-8.07-11.94ZM360.76,20.25h-5.83v11.13h5.83c4.41,0,6.51-2.1,6.51-5.56s-2.1-5.56-6.51-5.56Z"/>
    <path class="st0" d="M392.38,7.91h16.01v47.49h-16.01V7.91Z"/>
    <path class="st0" d="M451.42,47.12h-18.05l-3.19,8.28h-16.28l20.76-47.49h15.74l20.76,47.49h-16.56l-3.19-8.28ZM447,35.59l-4.61-11.94-4.61,11.94h9.23Z"/>
  </g>
  <g>
    <path class="st0" d="M28.9,85.63v20.29h25.31v3.12h-25.31v20.97h-3.46v-47.49h31.75v3.12h-28.29Z"/>
    <path class="st0" d="M79.04,109.86v-27.34h3.46v27.21c0,11.87,5.7,17.44,15.61,17.44s15.54-5.56,15.54-17.44v-27.21h3.46v27.34c0,13.57-7.26,20.49-19.07,20.49s-19-6.92-19-20.49Z"/>
    <path class="st0" d="M183.13,82.51v47.49h-2.85l-32.36-41.25v41.25h-3.46v-47.49h2.92l32.3,41.25v-41.25h3.46Z"/>
    <path class="st0" d="M210.88,82.51h18.79c15.06,0,25.24,9.91,25.24,23.75s-10.18,23.75-25.24,23.75h-18.79v-47.49ZM229.41,126.89c13.43,0,22.05-8.55,22.05-20.63s-8.62-20.63-22.05-20.63h-15.06v41.25h15.06Z"/>
    <path class="st0" d="M306.83,116.64h-27.55l-6.04,13.37h-3.73l21.85-47.49h3.46l21.85,47.49h-3.73l-6.11-13.37ZM305.54,113.72l-12.48-27.41-12.42,27.41h24.9Z"/>
    <path class="st0" d="M331.26,106.26c0-13.84,10.52-24.09,24.63-24.09,6.72,0,12.76,2.17,16.89,6.58l-2.17,2.24c-4.07-4-9.02-5.63-14.59-5.63-12.14,0-21.3,8.96-21.3,20.9s9.16,20.9,21.3,20.9c5.56,0,10.52-1.7,14.59-5.7l2.17,2.24c-4.14,4.41-10.18,6.65-16.89,6.65-14.11,0-24.63-10.25-24.63-24.09Z"/>
    <path class="st0" d="M395.58,82.51h3.46v47.49h-3.46v-47.49Z"/>
    <path class="st0" d="M422.25,106.26c0-13.77,10.52-24.09,24.7-24.09s24.7,10.25,24.7,24.09-10.58,24.09-24.7,24.09-24.7-10.31-24.7-24.09ZM468.12,106.26c0-12.01-9.09-20.9-21.17-20.9s-21.24,8.89-21.24,20.9,9.09,20.9,21.24,20.9,21.17-8.89,21.17-20.9ZM452.51,70.64h4.89l-10.65,8.01h-3.66l9.43-8.01Z"/>
  </g>
</svg>